<?xml version="1.0" standalone="no"?>
<!DOCTYPE svg PUBLIC "-//W3C//DTD SVG 20010904//EN"
 "http://www.w3.org/TR/2001/REC-SVG-20010904/DTD/svg10.dtd">
<svg version="1.0" xmlns="http://www.w3.org/2000/svg"
 width="164.000000pt" height="114.000000pt" viewBox="0 0 164.000000 114.000000"
 preserveAspectRatio="xMidYMid meet">

<g transform="translate(0.000000,114.000000) scale(0.100000,-0.100000)"
fill="#000000" stroke="none">
<path d="M703 1130 c-236 -24 -458 -121 -588 -255 -45 -48 -113 -151 -103
-160 1 -1 349 21 773 51 424 29 778 54 788 54 17 0 15 4 -8 33 -71 85 -213
174 -357 223 -142 48 -346 70 -505 54z"/>
<path d="M1366 724 c-3 -9 -6 -85 -6 -170 l0 -154 40 0 40 0 0 50 0 50 50 0
c28 0 50 -4 50 -9 0 -5 -7 -27 -15 -50 l-14 -42 47 3 47 3 13 55 c21 88 21
220 -1 253 -17 27 -19 27 -131 27 -95 0 -115 -3 -120 -16z m149 -48 c53 -54
38 -146 -25 -146 l-30 0 0 85 c0 95 10 106 55 61z"/>
<path d="M1030 565 l0 -165 45 0 44 0 3 63 3 62 43 3 42 3 0 -60 0 -61 51 0
51 0 -3 74 c-2 41 0 78 4 82 9 9 9 126 1 148 -5 14 -28 16 -145 16 l-139 0 0
-165z m195 70 l0 -40 -52 -3 -53 -3 0 46 0 46 53 -3 52 -3 0 -40z"/>
<path d="M680 550 l0 -150 50 0 50 0 0 60 0 60 95 0 c95 0 96 0 106 28 13 33
3 133 -14 144 -7 4 -74 8 -149 8 l-138 0 0 -150z m208 63 l-3 -48 -52 -3 -53
-3 0 50 0 51 56 0 55 0 -3 -47z"/>
<path d="M383 683 c-10 -3 -13 -41 -13 -138 0 -112 2 -134 16 -139 20 -8 208
-8 228 0 24 9 24 269 0 278 -19 7 -213 7 -231 -1z m182 -138 l0 -100 -65 0
-65 0 -3 89 c-2 49 0 96 2 103 4 10 22 13 68 11 l63 -3 0 -100z"/>
<path d="M53 648 c-25 -12 -46 -65 -41 -100 3 -22 9 -23 108 -29 58 -4 106 -7
108 -8 2 0 2 -16 0 -33 l-3 -33 -102 -3 c-95 -2 -103 -4 -103 -23 0 -19 6 -19
143 -17 l142 3 0 75 0 75 -99 5 c-99 5 -114 11 -96 40 7 11 33 16 100 18 81 4
90 6 90 23 0 18 -8 19 -112 18 -62 0 -123 -5 -135 -11z"/>
<path d="M51 347 c23 -42 114 -129 185 -177 147 -98 326 -149 549 -157 230 -8
426 35 594 130 71 40 221 170 210 182 -3 3 -287 12 -630 20 -343 8 -690 16
-772 19 l-147 5 11 -22z"/>
</g>
</svg>
