<?xml version="1.0" standalone="no"?>
<!DOCTYPE svg PUBLIC "-//W3C//DTD SVG 20010904//EN"
 "http://www.w3.org/TR/2001/REC-SVG-20010904/DTD/svg10.dtd">
<svg version="1.0" xmlns="http://www.w3.org/2000/svg"
 width="1017.000000pt" height="476.000000pt" viewBox="0 0 1017.000000 476.000000"
 preserveAspectRatio="xMidYMid meet">

<g transform="translate(0.000000,476.000000) scale(0.100000,-0.100000)"
fill="#000000" stroke="none">
<path d="M6010 4708 c-3 -3 -106 -8 -230 -12 -303 -9 -589 -24 -680 -35 -134
-18 -350 -77 -365 -100 -2 -5 8 -6 23 -4 18 3 11 -3 -23 -20 -28 -13 -147 -82
-265 -152 -187 -112 -363 -231 -785 -529 -55 -39 -117 -79 -137 -90 -20 -10
-54 -34 -74 -53 -21 -18 -44 -33 -52 -31 -8 2 41 44 109 93 68 50 189 141 269
204 172 136 252 189 465 309 241 136 339 192 350 204 6 6 -10 -1 -35 -15 -38
-21 -126 -70 -360 -199 -161 -89 -432 -280 -698 -490 -40 -32 -85 -61 -100
-64 -29 -6 -128 -32 -244 -64 -58 -16 -109 -20 -250 -21 -98 -1 -178 -5 -178
-9 0 -4 -29 -15 -64 -24 -59 -14 -73 -14 -168 0 -124 19 -470 14 -608 -10
-304 -51 -609 -144 -797 -240 -53 -28 -86 -39 -92 -33 -5 5 -18 6 -28 2 -17
-7 -17 -7 2 -15 17 -6 19 -14 16 -61 -3 -30 -7 -44 -9 -31 -2 15 -9 22 -17 18
-21 -8 -28 10 -15 35 18 32 -3 47 -24 17 -9 -12 -19 -22 -21 -20 -3 1 -11 2
-17 1 -7 -1 -2 -5 12 -9 22 -8 21 -8 -10 -7 -29 1 -130 -44 -130 -58 0 -2 27
8 59 22 45 19 68 24 95 19 40 -8 43 -16 20 -51 -22 -34 -68 -59 -145 -79 -47
-12 -80 -29 -115 -58 -27 -23 -90 -72 -141 -110 -92 -68 -123 -98 -89 -85 21
8 125 39 140 41 24 4 62 37 79 68 12 22 13 26 3 13 -40 -50 -60 -63 -118 -78
-67 -17 -84 -16 -46 3 27 15 167 127 186 149 10 13 11 11 6 -15 -6 -33 10
-109 26 -119 6 -3 30 8 55 26 42 30 45 36 39 63 -4 17 -13 40 -20 51 -20 27
-17 35 9 35 26 0 51 -23 61 -57 6 -19 -12 -42 -116 -148 -153 -157 -198 -189
-252 -180 -22 3 -52 13 -68 23 -32 18 -68 70 -68 95 0 15 83 118 92 114 1 -1
2 0 0 2 -3 6 110 121 119 121 4 0 5 -9 2 -20 -3 -10 -8 -18 -12 -17 -3 1 -27
-18 -51 -42 -45 -44 -45 -44 -10 -25 19 10 84 68 145 128 60 60 101 103 90 95
-11 -8 -23 -18 -26 -22 -3 -5 -10 -8 -15 -8 -5 1 -9 -4 -9 -9 0 -14 -27 -30
-39 -23 -5 3 -6 2 -3 -4 3 -5 -7 -20 -23 -31 -32 -24 -45 -28 -34 -10 30 47
-167 -125 -242 -213 -122 -142 -170 -231 -188 -349 -13 -82 -16 -115 -28 -301
-12 -206 -3 -445 24 -558 14 -62 5 -56 228 -146 88 -35 210 -94 272 -129 114
-66 166 -100 138 -91 -18 5 -164 -174 -204 -251 -52 -99 -45 -190 19 -259 66
-69 171 -103 500 -161 110 -19 283 -50 385 -69 102 -19 212 -38 245 -44 33 -5
128 -21 210 -35 656 -109 1175 -136 1680 -86 61 6 133 13 160 15 889 86 1003
98 1330 141 448 58 539 83 852 228 217 101 757 310 1073 416 198 66 588 163
945 235 179 36 500 108 650 146 309 78 394 91 715 114 275 19 348 36 419 100
101 91 91 229 -29 405 -33 48 -45 59 -52 49 -8 -11 -9 -11 -5 2 47 148 77 284
77 348 0 32 7 44 50 83 58 54 114 141 136 213 27 91 44 286 46 551 2 241 1
265 -20 342 -28 101 -50 161 -69 184 -8 9 -22 30 -31 47 -33 61 -107 153 -133
166 -15 8 -40 16 -55 19 -160 26 -444 42 -764 45 -153 1 -205 -2 -295 -20
-117 -22 -184 -27 -225 -15 -20 6 -22 5 -10 -4 28 -21 -125 -1 -263 34 -143
36 -266 61 -272 54 -2 -2 13 -51 34 -108 21 -58 42 -120 46 -138 l7 -34 -25
16 c-34 23 -191 39 -313 33 -163 -8 -230 -49 -333 -203 l-66 -99 -64 -3 -64
-3 28 38 c15 21 46 56 67 79 40 41 44 54 135 364 4 13 -14 15 -136 12 -78 -2
-141 -1 -141 4 0 4 18 40 40 81 61 111 40 87 -31 -34 l-62 -108 -38 -218 c-21
-119 -40 -226 -44 -236 -6 -20 -20 -24 -135 -36 -30 -4 -102 -13 -159 -21 -57
-8 -105 -13 -107 -11 -2 1 129 212 290 467 286 455 293 465 325 466 21 1 43
-8 62 -23 23 -20 29 -21 29 -9 0 16 -59 64 -111 91 -34 18 -167 44 -249 49
-113 8 -845 19 -850 14z m1036 -100 l41 -11 -295 -466 c-161 -256 -297 -470
-302 -475 -4 -4 -56 -14 -115 -21 -59 -7 -110 -16 -113 -20 -7 -6 343 3 365
10 13 4 49 -53 39 -62 -3 -3 -90 4 -193 16 -103 12 -264 24 -358 27 -93 4
-171 7 -172 8 -1 1 73 57 165 124 92 68 175 133 185 147 l17 24 -42 12 c-49
14 -316 18 -366 6 -39 -10 -40 -23 15 166 59 205 60 206 183 238 76 19 218 -7
282 -52 32 -23 88 -120 88 -152 0 -20 15 -9 98 70 53 52 116 110 140 130 52
44 132 143 161 201 24 48 97 106 120 97 9 -4 34 -11 57 -17z m1037 -397 c79
-36 112 -63 104 -84 -11 -29 -63 -21 -104 17 -36 32 -81 96 -68 96 3 0 33 -13
68 -29z m1235 -104 c56 -18 77 -68 77 -183 1 -92 13 -125 60 -164 15 -12 22
-35 8 -27 -18 11 -132 -16 -185 -43 -54 -29 -58 -29 -98 -15 -89 31 -126 29
-254 -14 -107 -37 -121 -39 -136 -26 -9 8 -21 15 -26 15 -17 0 -52 64 -70 125
-9 33 -25 77 -36 98 -10 21 -16 42 -13 47 3 6 1 10 -4 10 -16 0 -13 -26 8 -68
10 -20 28 -69 39 -108 12 -39 29 -77 37 -84 8 -7 15 -16 15 -20 0 -4 -38 -22
-85 -40 -47 -18 -88 -37 -91 -42 -3 -4 4 -21 14 -36 l20 -27 -431 -86 c-443
-88 -1149 -240 -1143 -247 2 -2 266 49 586 113 320 64 584 114 586 112 5 -5
-150 -38 -616 -132 -206 -42 -459 -93 -563 -114 -103 -21 -189 -36 -191 -32
-6 9 -116 402 -116 412 0 5 24 6 53 3 37 -3 46 -2 32 5 -11 5 -38 10 -61 10
-36 1 -42 5 -57 36 -9 20 -17 37 -17 39 0 4 35 9 305 46 83 11 165 23 184 26
l34 5 -34 -42 c-18 -23 -54 -57 -80 -76 -52 -37 -74 -79 -85 -162 -5 -39 -3
-56 11 -77 17 -26 19 -26 111 -22 74 3 99 8 121 24 33 24 82 109 83 142 0 24
95 155 150 207 l31 30 192 6 c112 4 204 11 222 18 57 23 105 84 105 133 0 21
10 27 86 52 107 35 123 27 76 -39 l-31 -44 32 6 c18 3 64 16 102 30 216 76
299 103 313 103 9 0 26 -10 39 -22 13 -12 23 -16 23 -10 0 6 -10 18 -22 26
l-21 15 29 11 c52 20 247 77 304 90 141 30 299 33 378 7z m-753 -101 c11 -3
-34 -2 -100 0 -66 3 -123 9 -127 13 -7 6 188 -5 227 -13z m-636 -15 c61 -44
67 -81 12 -81 -21 0 -74 -9 -117 -19 -44 -11 -136 -24 -205 -30 -184 -17 -232
-35 -307 -114 -23 -23 -40 -33 -53 -30 -10 3 -19 7 -19 10 0 15 97 127 151
174 82 71 88 75 190 93 170 31 301 30 348 -3z m-4365 -246 c-27 -20 -51 -20
-34 0 7 8 22 15 33 15 20 0 20 0 1 -15z m6195 -21 c-17 -21 -31 -17 -19 6 6
11 15 18 21 14 6 -4 6 -11 -2 -20z m-2756 -11 c-7 -2 -19 -2 -25 0 -7 3 -2 5
12 5 14 0 19 -2 13 -5z m210 -72 c-25 -31 -48 -62 -50 -69 -4 -9 -9 -10 -19
-1 -22 18 -17 34 31 87 33 37 50 49 65 45 17 -5 15 -11 -27 -62z m181 17 c-23
-39 -85 -128 -93 -133 -6 -3 13 28 41 70 29 41 53 75 55 75 3 0 1 -6 -3 -12z
m-642 -332 c32 -115 57 -211 54 -214 -3 -2 -44 -12 -92 -22 -96 -20 -134 -15
-194 25 -34 22 -43 23 -315 27 l-280 5 -82 -38 -83 -38 -58 35 c-169 102 -365
108 -624 18 -244 -85 -375 -174 -472 -321 -23 -35 -36 -43 -79 -54 -121 -28
-347 -114 -485 -183 -131 -66 -156 -82 -205 -136 l-55 -61 -169 -30 -168 -30
-123 -80 -123 -79 -179 37 c-99 21 -180 40 -180 44 0 22 34 42 93 54 79 16
129 48 274 170 l101 86 144 24 c270 47 370 81 492 169 122 87 239 239 281 365
l22 66 114 56 c120 60 225 99 535 199 219 70 342 97 492 109 59 5 377 8 706 7
l599 -1 59 -209z m327 171 c-2 -1 -15 -8 -28 -15 -19 -11 -22 -11 -18 0 2 7 0
21 -5 31 -10 20 2 23 21 5 10 -11 11 -9 5 7 -5 17 -4 17 11 -3 9 -13 15 -24
14 -25z m-4742 27 c-3 -3 -12 -4 -19 -1 -8 3 -5 6 6 6 11 1 17 -2 13 -5z m-40
-10 c-3 -3 -12 -4 -19 -1 -8 3 -5 6 6 6 11 1 17 -2 13 -5z m-427 -154 c-8 -5
-19 -10 -25 -10 -5 0 -3 5 5 10 8 5 20 10 25 10 6 0 3 -5 -5 -10z m7596 -16
c79 -38 162 -170 198 -315 38 -154 40 -350 6 -528 -13 -71 -24 -81 -15 -13 6
48 5 52 -14 52 -16 0 -21 -6 -21 -24 0 -52 -32 -172 -61 -231 -17 -34 -48 -79
-69 -100 -26 -25 -36 -43 -33 -56 4 -15 -3 -23 -31 -34 -76 -32 -168 -6 -226
63 -44 52 -96 164 -122 257 -19 69 -22 107 -22 270 -1 168 2 200 23 280 53
204 141 344 241 384 38 15 108 13 146 -5z m-7806 -64 c-8 -5 -19 -10 -25 -10
-5 0 -3 5 5 10 8 5 20 10 25 10 6 0 3 -5 -5 -10z m-100 -40 c-8 -5 -19 -10
-25 -10 -5 0 -3 5 5 10 8 5 20 10 25 10 6 0 3 -5 -5 -10z m2640 -115 c0 -50
-75 -177 -149 -253 -38 -40 -75 -72 -81 -72 -6 0 -48 -22 -93 -50 -106 -64
-189 -92 -394 -130 -93 -17 -177 -33 -188 -35 -11 -3 0 4 24 15 41 19 307 212
323 234 4 6 4 14 1 20 -3 5 -1 6 5 2 6 -4 35 12 63 34 29 23 68 48 88 56 19 8
42 21 51 28 16 15 329 175 343 176 4 0 7 -11 7 -25z m-2890 10 c0 -2 -18 -14
-40 -25 -22 -11 -40 -18 -40 -15 0 2 17 13 38 24 42 23 42 23 42 16z m-421
-43 c-10 -17 -15 -18 -26 -7 -18 19 -17 23 10 27 29 5 31 3 16 -20z m7902 -49
c-8 -15 -10 -15 -11 -2 0 17 10 32 18 25 2 -3 -1 -13 -7 -23z m-7611 13 c0 -2
-8 -10 -17 -17 -16 -13 -17 -12 -4 4 13 16 21 21 21 13z m-362 -58 c2 -19 -3
-30 -18 -38 -23 -12 -35 4 -27 37 4 14 5 14 6 -4 1 -16 6 -21 16 -17 21 8 19
41 -2 48 -14 4 -14 4 2 3 14 -2 21 -11 23 -29z m2649 -24 c-3 -3 -12 -4 -19
-1 -8 3 -5 6 6 6 11 1 17 -2 13 -5z m-105 -46 c-9 -9 -9 -15 0 -27 8 -11 5
-10 -8 2 -16 15 -17 19 -4 27 21 13 26 12 12 -2z m-2516 -14 c0 -9 14 -24 31
-34 30 -16 31 -18 15 -32 -21 -18 -69 -48 -77 -48 -3 0 -5 19 -5 42 l0 42 -47
-44 c-27 -25 -19 -15 17 23 35 37 65 67 66 67 1 0 1 -7 0 -16z m2483 -14 c10
-5 24 -23 31 -39 10 -25 9 -34 -6 -60 -22 -37 -33 -40 -27 -7 3 13 -5 42 -16
64 -12 23 -21 44 -21 47 0 8 20 6 39 -5z m275 -9 c21 -23 18 -66 -4 -66 -8 0
-16 10 -18 22 -2 12 -10 27 -18 33 -8 7 -14 16 -14 21 0 16 37 9 54 -10z
m-140 -13 c-4 -7 -31 -37 -58 -66 -70 -73 -74 -87 -27 -91 48 -3 61 -17 22
-25 -106 -21 -100 -23 -75 27 9 18 44 62 76 100 57 63 79 83 62 55z m-3041
-158 c18 -19 23 -28 12 -20 -11 8 -34 30 -50 49 l-31 33 -28 -41 c-16 -22 -31
-41 -34 -41 -4 0 16 34 47 77 l16 22 18 -22 c10 -12 32 -38 50 -57z m2541 70
c-5 -5 -41 -25 -80 -44 -40 -19 -102 -54 -140 -78 -93 -59 -94 -60 -94 -53 0
10 136 93 227 139 94 48 103 52 87 36z m151 -89 c-2 -2 -59 -14 -127 -27 -68
-12 -170 -37 -228 -53 -108 -31 -145 -37 -136 -22 3 5 16 9 28 9 13 0 79 15
148 35 69 19 164 41 213 48 81 11 87 14 87 36 0 22 -3 23 -82 25 l-83 2 85 5
85 6 7 -30 c3 -16 5 -32 3 -34z m369 43 c3 -8 2 -12 -4 -9 -6 3 -10 10 -10 16
0 14 7 11 14 -7z m1842 -78 c267 -71 462 -375 469 -731 1 -66 0 -96 -2 -67 -4
50 -5 52 -32 52 -27 0 -29 -3 -33 -46 -2 -31 1 -48 9 -51 15 -6 17 -33 3 -33
-23 0 -313 74 -303 77 6 2 41 -3 78 -12 36 -8 67 -15 69 -15 1 0 1 27 0 60 -6
107 -41 249 -82 334 -67 138 -58 142 -140 -54 l-73 -172 16 -46 c12 -36 12
-47 3 -54 -7 -4 -19 -6 -25 -3 -7 2 -13 0 -13 -4 0 -5 33 -19 73 -31 68 -21
70 -23 45 -32 -16 -5 -28 -15 -28 -21 0 -7 -6 -1 -13 13 -7 14 -22 26 -33 28
-21 3 -74 -32 -74 -49 0 -5 9 0 20 11 24 24 43 25 60 5 32 -38 -28 -104 -67
-74 -16 13 -17 12 -4 -3 18 -23 32 -23 65 3 19 15 26 17 26 7 0 -20 -21 -38
-44 -38 -10 0 -17 -2 -15 -5 3 -2 77 -9 164 -14 88 -6 197 -13 242 -16 l81 -6
12 56 c15 70 23 67 13 -5 -8 -52 -8 -53 -54 -66 -46 -14 -46 -14 -51 -63 -3
-33 -24 -89 -61 -165 -48 -97 -69 -127 -134 -194 -86 -87 -157 -142 -183 -142
-19 0 -16 -14 -65 361 -17 133 -27 181 -41 197 -27 32 -60 28 -79 -8 -19 -37
-19 -64 0 -29 20 36 42 42 65 19 25 -25 25 -52 1 -74 -22 -20 -68 -13 -89 13
-12 14 -12 14 -8 -4 9 -31 106 -479 106 -487 0 -21 -36 -38 -79 -38 -108 0
-223 46 -307 122 -59 54 -66 76 -12 35 71 -53 146 -72 249 -62 66 7 66 7 79
45 11 33 9 52 -14 151 -14 63 -26 122 -26 132 0 19 -16 23 -22 5 -3 -7 -27 5
-62 31 -31 23 -64 40 -71 37 -23 -8 -115 -79 -115 -88 0 -14 11 -9 30 14 15
19 20 20 33 10 13 -11 13 -19 5 -44 -8 -23 -8 -32 2 -38 9 -6 9 -9 1 -11 -9
-3 -9 -12 -2 -32 6 -15 7 -27 2 -27 -5 0 -11 -9 -14 -20 -6 -24 -3 -25 17 -4
9 8 16 11 16 5 0 -5 -5 -13 -11 -17 -8 -4 -7 -9 2 -16 10 -7 4 -8 -16 -3 -40
8 -106 48 -142 84 -26 25 -31 27 -48 15 -16 -12 -17 -17 -6 -41 l13 -28 -26
24 c-47 44 -30 -2 32 -86 96 -129 194 -197 328 -229 112 -26 196 -16 302 36
73 36 103 59 182 139 81 81 104 112 147 196 28 55 61 130 73 168 13 37 25 65
27 63 9 -8 -37 -138 -75 -216 -121 -247 -340 -410 -551 -410 -139 0 -265 55
-371 161 -153 154 -233 374 -233 639 1 413 208 763 513 867 77 26 197 30 276
9z m-4106 -76 c25 -7 48 -17 52 -24 6 -8 8 -8 8 2 0 6 8 12 18 12 13 -1 11 -6
-11 -25 -15 -14 -23 -25 -16 -25 6 0 17 7 24 17 7 9 17 13 25 8 10 -6 9 -9 -1
-16 -33 -21 90 6 128 28 24 14 48 23 55 20 19 -6 -87 -57 -120 -57 -16 0 -32
-3 -35 -7 -4 -3 -24 -8 -45 -10 -48 -5 -65 -11 -58 -22 4 -5 -5 -19 -20 -30
-28 -22 -59 -18 -48 8 13 32 8 44 -23 55 -38 13 -59 32 -23 20 14 -4 35 -8 48
-9 12 0 22 -3 22 -7 0 -5 7 -8 16 -8 12 0 11 -5 -7 -20 -14 -11 -18 -19 -11
-20 7 0 10 -5 6 -11 -4 -8 0 -8 15 0 25 14 28 26 4 17 -16 -6 -15 -5 1 12 15
18 15 21 2 35 -14 13 -13 15 6 21 23 5 20 16 -4 20 -7 1 -19 6 -27 11 -10 5
-16 4 -19 -3 -2 -7 -8 -12 -13 -12 -6 0 -8 4 -4 9 3 6 -3 15 -12 21 -20 12
-22 13 67 -10z m-70 -18 c0 -5 -7 -9 -15 -9 -8 0 -12 4 -9 9 3 4 9 8 15 8 5 0
9 -4 9 -8z m275 -2 c-3 -5 -11 -10 -16 -10 -6 0 -7 5 -4 10 3 6 11 10 16 10 6
0 7 -4 4 -10z m75 -15 c0 -20 -142 -65 -204 -65 -48 0 -44 6 9 14 89 13 131
23 160 39 34 18 35 19 35 12z m2830 -100 c0 -3 -11 -27 -24 -53 -13 -26 -29
-64 -35 -84 -11 -33 -17 -38 -64 -48 -76 -16 -459 -70 -521 -73 -57 -2 -86 12
-86 43 0 20 44 60 65 60 7 0 100 25 206 56 259 74 262 75 354 89 102 16 105
16 105 10z m5317 -47 c-3 -8 -6 -5 -6 6 -1 11 2 17 5 13 3 -3 4 -12 1 -19z
m-23 -67 c-9 -23 -18 -40 -21 -38 -2 3 4 23 13 46 9 23 18 40 21 38 2 -3 -4
-23 -13 -46z m-4207 -467 c-3 -3 -12 -4 -19 -1 -8 3 -5 6 6 6 11 1 17 -2 13
-5z m-2052 -93 c42 -7 56 -16 98 -62 l49 -53 -7 -60 c-3 -34 -8 -62 -10 -64
-9 -9 -374 17 -396 28 -52 27 -59 40 -59 104 0 84 15 104 83 109 99 7 192 6
242 -2z m-327 -8 c-10 -2 -28 -2 -40 0 -13 2 -5 4 17 4 22 1 32 -1 23 -4z
m-2806 -38 c4 -36 -7 -42 -25 -13 -11 17 -3 48 12 48 5 0 11 -16 13 -35z
m2728 -79 l0 -113 -77 -13 c-43 -7 -82 -13 -87 -14 -15 -2 -50 135 -49 192 1
29 -3 50 -8 46 -5 -3 -9 0 -9 5 0 7 41 11 115 11 l115 0 0 -114z m-253 2 c-3
-8 -6 -5 -6 6 -1 11 2 17 5 13 3 -3 4 -12 1 -19z m-10 -40 c-3 -8 -6 -5 -6 6
-1 11 2 17 5 13 3 -3 4 -12 1 -19z m853 -55 c0 -12 -3 -24 -7 -26 -5 -3 -8 12
-8 34 -1 22 2 33 7 26 4 -6 8 -22 8 -34z m-863 5 c-3 -7 -5 -2 -5 12 0 14 2
19 5 13 2 -7 2 -19 0 -25z m0 -47 c-3 -12 1 -22 12 -26 22 -9 559 -6 706 4 67
4 131 13 143 20 21 11 22 11 11 -8 -11 -16 -28 -20 -118 -26 -58 -3 -144 -10
-191 -15 -47 -6 -188 -10 -313 -10 -198 0 -233 2 -258 17 -32 19 -38 33 -14
33 8 0 15 7 15 15 0 8 3 15 6 15 4 0 4 -9 1 -19z m1078 -86 c-172 -46 -527
-84 -825 -90 l-215 -4 160 18 c88 11 207 23 265 28 96 9 81 10 -175 13 l-280
3 170 7 c94 4 292 17 440 29 330 26 353 27 485 29 l105 1 -130 -34z m1300 -6
c4 -11 4 -31 1 -45 -6 -24 8 -34 17 -11 3 6 5 3 4 -8 0 -11 3 -31 7 -45 l8
-25 -16 22 c-10 13 -23 20 -31 17 -11 -5 -15 2 -15 24 0 17 -3 38 -7 48 -4 11
-3 15 4 11 7 -5 9 0 6 13 -7 27 14 26 22 -1z m11 -124 c-3 -8 3 -15 12 -17 9
-2 2 -6 -15 -9 -35 -6 -44 10 -20 35 14 16 31 10 23 -9z"/>
<path d="M8816 3991 c-33 -10 -62 -23 -64 -30 -5 -14 86 -260 103 -279 27 -31
165 18 173 62 6 29 -36 198 -58 234 -17 27 -25 32 -57 31 -21 -1 -65 -9 -97
-18z m144 -23 c11 -18 29 -75 41 -126 20 -87 21 -94 5 -111 -25 -28 -68 -43
-111 -39 l-38 3 -49 129 c-27 70 -46 131 -43 135 10 9 117 38 148 40 21 1 32
-7 47 -31z"/>
<path d="M8678 3953 c-21 -5 -23 -22 -5 -47 13 -18 15 -17 35 9 34 43 26 53
-30 38z"/>
<path d="M9313 3250 c-15 -9 -39 -29 -52 -44 -22 -24 -23 -29 -12 -66 6 -22
21 -44 31 -50 11 -6 32 -29 45 -51 21 -32 23 -43 14 -60 -6 -11 -8 -23 -5 -27
3 -3 6 -2 6 3 0 4 6 2 14 -4 11 -10 16 -3 25 36 7 26 11 50 11 53 0 3 6 28 15
55 20 67 19 85 -4 85 -23 0 -31 17 -24 52 6 33 -25 42 -64 18z"/>
<path d="M9503 3238 c-4 -7 -8 -19 -9 -27 -2 -7 -32 -87 -69 -178 -37 -91 -64
-167 -61 -170 3 -3 9 3 13 13 4 10 39 99 78 197 40 97 68 177 64 177 -4 0 -11
-6 -16 -12z"/>
<path d="M9180 3047 c0 -7 9 -45 20 -86 12 -40 21 -88 22 -107 1 -26 6 -34 20
-34 11 0 18 6 16 13 -31 120 -64 227 -70 227 -4 0 -8 -6 -8 -13z"/>
<path d="M9447 2894 c-15 -59 -26 -108 -25 -109 13 -8 102 -55 106 -55 8 0 -4
98 -24 188 -9 45 -20 82 -23 82 -3 0 -19 -48 -34 -106z"/>
<path d="M9401 2840 c0 -29 1 -32 10 -17 7 11 7 23 0 35 -9 14 -10 11 -10 -18z"/>
<path d="M9320 2813 c0 -21 3 -24 9 -14 5 8 7 20 4 28 -8 21 -13 15 -13 -14z"/>
<path d="M9354 2791 c-4 -17 -14 -31 -25 -34 -12 -3 -19 -14 -19 -31 0 -21 4
-25 25 -24 16 2 24 7 21 15 -3 8 2 13 12 13 37 0 44 15 26 53 -21 45 -33 47
-40 8z"/>
<path d="M9127 2753 c-3 -27 -2 -73 3 -103 6 -49 7 -44 9 48 0 56 -1 102 -3
102 -2 0 -6 -21 -9 -47z"/>
<path d="M9226 2758 c-3 -17 -5 -32 -4 -33 2 -1 20 0 41 3 l38 4 -27 29 c-35
37 -40 36 -48 -3z"/>
<path d="M9640 2776 c0 -11 -14 -16 -47 -18 -36 -2 -49 -7 -51 -20 -2 -12 5
-19 25 -23 48 -11 71 -23 83 -45 9 -17 -13 -9 -106 39 -65 34 -119 59 -122 57
-2 -2 17 -16 42 -30 25 -14 66 -37 91 -51 39 -23 45 -30 45 -59 0 -30 3 -34
33 -39 17 -2 34 -3 37 0 3 3 7 49 8 104 4 95 3 99 -17 99 -12 0 -21 -6 -21
-14z"/>
<path d="M9442 2685 c0 -16 2 -22 5 -12 2 9 2 23 0 30 -3 6 -5 -1 -5 -18z"/>
<path d="M9210 2665 c0 -11 -16 -45 -35 -75 -18 -30 -32 -57 -29 -59 5 -6 4
-7 49 67 28 47 34 67 26 75 -8 8 -11 6 -11 -8z"/>
<path d="M9306 2654 c-3 -9 -2 -23 4 -32 7 -14 9 -10 10 16 0 35 -5 41 -14 16z"/>
<path d="M9430 2620 c14 -4 36 -8 50 -8 22 0 22 1 -5 8 -16 4 -39 8 -50 8 -16
0 -15 -2 5 -8z"/>
<path d="M9415 2497 c4 -62 10 -129 14 -148 l8 -34 26 55 c21 45 61 199 54
206 -1 1 -26 9 -56 18 l-53 16 7 -113z"/>
<path d="M9375 2568 c-4 -10 -4 -26 0 -35 8 -17 8 -17 12 0 3 9 3 25 0 35 -4
16 -4 16 -12 0z"/>
<path d="M9260 2495 c11 -13 9 -15 -13 -15 -13 0 -31 -7 -38 -17 -13 -15 -11
-16 16 -9 17 4 38 9 47 12 13 4 21 -3 28 -21 18 -46 12 -82 -16 -104 -48 -38
-104 -18 -89 31 4 13 4 19 -1 15 -4 -4 -14 3 -21 15 -13 21 -14 20 -8 -17 13
-80 86 -205 121 -205 8 0 14 4 14 8 0 5 10 13 22 19 19 8 22 16 20 64 -5 128
-15 199 -27 199 -6 0 -20 9 -30 20 -21 23 -44 28 -25 5z"/>
<path d="M9361 2433 c-2 -37 21 -173 28 -173 4 0 1 39 -6 88 -15 95 -21 119
-22 85z"/>
<path d="M9250 2175 c0 -9 83 -65 97 -65 7 0 13 7 13 15 0 8 -6 15 -13 15 -7
0 -30 9 -52 20 -42 22 -45 22 -45 15z"/>
<path d="M3358 2703 c7 -3 16 -2 19 1 4 3 -2 6 -13 5 -11 0 -14 -3 -6 -6z"/>
<path d="M5074 2555 c-34 -7 -79 -22 -101 -34 -57 -29 -155 -121 -150 -140 5
-20 177 -251 186 -251 3 0 32 6 63 14 32 7 60 11 63 8 3 -3 5 -17 5 -31 1 -23
4 -21 25 19 13 25 34 81 46 126 17 59 28 83 43 90 28 12 40 100 17 114 -12 6
-13 12 -5 20 18 18 5 67 -20 74 -34 9 -106 5 -172 -9z m131 -59 c54 -20 31
-20 -28 0 -27 9 -68 14 -97 12 -55 -3 -61 -1 -29 11 26 9 97 -1 154 -23z
m-255 -216 c0 -5 -5 -10 -11 -10 -5 0 -7 5 -4 10 3 6 8 10 11 10 2 0 4 -4 4
-10z"/>
<path d="M4707 2237 c-20 -15 -82 -168 -108 -266 -20 -77 -26 -256 -13 -354 6
-42 9 -45 26 -36 10 5 16 14 13 19 -3 6 0 8 7 5 7 -2 27 7 43 21 17 15 24 23
18 20 -8 -5 -13 -1 -13 9 0 9 -5 13 -11 10 -6 -4 -8 -14 -5 -24 5 -12 2 -11
-9 3 -8 11 -15 25 -15 30 0 6 5 4 10 -4 6 -9 10 -10 10 -3 0 7 -8 17 -17 23
-17 11 -17 11 1 6 14 -5 17 -2 12 10 -3 8 -6 18 -6 20 0 3 -5 2 -11 -2 -6 -3
-4 8 5 24 19 37 21 62 4 62 -9 0 -8 4 2 10 8 5 11 10 6 10 -5 0 -3 6 3 14 9
11 6 15 -14 20 -16 4 -23 11 -19 18 6 9 9 9 12 0 2 -7 8 -12 14 -12 7 0 8 15
4 39 -3 22 -1 52 4 66 9 24 8 26 -6 21 -14 -5 -15 -4 -4 9 8 10 10 30 7 58 -3
23 -4 36 -1 30 3 -7 10 -13 15 -13 12 0 12 27 0 32 -6 2 0 24 11 51 16 37 24
45 34 36 7 -6 10 -17 7 -25 -3 -8 -1 -14 5 -14 5 0 28 -29 51 -63 l41 -64 -26
-58 c-23 -49 -27 -72 -29 -166 -1 -99 0 -107 16 -99 9 5 29 23 43 41 21 24 26
42 27 87 1 79 11 106 37 110 12 2 22 5 22 8 0 2 -19 34 -43 71 -24 38 -62 100
-85 140 -48 82 -53 87 -75 70z m-73 -253 c3 -8 2 -12 -4 -9 -6 3 -10 10 -10
16 0 14 7 11 14 -7z"/>
<path d="M4725 2111 c-3 -5 -1 -12 4 -15 5 -3 11 1 15 9 6 16 -9 21 -19 6z"/>
<path d="M4735 2071 c-3 -5 -1 -12 4 -15 5 -3 11 1 15 9 6 16 -9 21 -19 6z"/>
<path d="M5181 2044 c-12 -15 -21 -36 -21 -48 1 -16 4 -14 15 12 15 33 41 42
63 20 16 -16 15 -60 0 -78 -11 -12 -10 -12 5 -1 22 17 23 84 1 105 -22 23 -40
20 -63 -10z"/>
<path d="M4680 2045 c0 -8 2 -15 4 -15 2 0 6 7 10 15 3 8 1 15 -4 15 -6 0 -10
-7 -10 -15z"/>
<path d="M5000 2010 c-11 -11 -20 -30 -20 -42 0 -23 1 -23 13 2 15 30 39 36
61 15 23 -23 20 -61 -6 -79 -12 -9 -18 -16 -12 -16 20 0 44 36 44 67 0 18 -9
38 -23 51 -29 27 -32 27 -57 2z"/>
<path d="M4696 2011 c-4 -7 -5 -15 -2 -18 9 -9 19 4 14 18 -4 11 -6 11 -12 0z"/>
<path d="M5192 2003 c-11 -21 -5 -43 10 -43 6 0 6 6 -2 15 -10 12 -9 16 3 21
9 3 21 2 28 -2 7 -4 10 -2 7 7 -7 21 -35 22 -46 2z"/>
<path d="M5012 1968 c-17 -17 -15 -33 6 -49 15 -13 16 -12 4 3 -16 20 -6 42
15 34 9 -4 13 -1 11 6 -6 17 -22 20 -36 6z"/>
<path d="M5100 1946 c0 -31 -36 -76 -61 -76 -10 0 -19 -6 -19 -12 0 -7 -3 -23
-6 -35 -6 -20 -3 -23 22 -23 49 0 76 11 64 25 -8 10 -3 14 20 17 21 3 34 0 40
-11 8 -13 9 -12 10 5 0 25 22 36 55 28 12 -3 26 -1 29 5 10 16 -12 51 -32 51
-9 0 -28 12 -41 25 -32 34 -81 35 -81 1z"/>
<path d="M4660 1935 c0 -8 5 -15 10 -15 6 0 10 7 10 15 0 8 -4 15 -10 15 -5 0
-10 -7 -10 -15z"/>
<path d="M4980 1931 c0 -6 4 -13 10 -16 6 -3 7 1 4 9 -7 18 -14 21 -14 7z"/>
<path d="M4705 1911 c-3 -5 -1 -12 5 -16 5 -3 10 1 10 9 0 18 -6 21 -15 7z"/>
<path d="M4865 1866 c-4 -31 -5 -59 -2 -62 3 -3 19 2 36 10 26 14 71 22 71 13
0 -2 -71 -74 -157 -160 -87 -86 -151 -157 -143 -157 9 0 88 72 175 161 l160
161 -40 19 c-21 11 -51 31 -66 45 l-27 26 -7 -56z"/>
<path d="M4665 1821 c-3 -5 -1 -12 4 -15 5 -3 11 1 15 9 6 16 -9 21 -19 6z"/>
<path d="M5260 1800 c-9 -17 -9 -25 0 -34 8 -8 10 -7 5 6 -9 23 23 37 37 17 7
-11 8 -9 6 6 -4 28 -34 31 -48 5z"/>
<path d="M4982 1763 c-7 -2 -17 -14 -24 -26 -11 -21 -10 -21 9 -4 51 45 101
-15 53 -63 -11 -11 -16 -20 -12 -20 14 0 39 33 45 59 11 46 -24 73 -71 54z"/>
<path d="M4657 1729 c6 -22 23 -26 23 -5 0 8 -6 16 -14 19 -10 4 -12 0 -9 -14z"/>
<path d="M4970 1710 c-10 -19 -10 -20 10 -8 17 11 22 11 31 -2 8 -12 10 -11 7
5 -4 27 -34 31 -48 5z"/>
<path d="M4935 1652 c-4 -21 -17 -34 -49 -50 -56 -26 -112 -76 -142 -124 -13
-21 -24 -40 -24 -42 0 -2 60 35 133 83 193 127 200 131 228 125 23 -5 23 -5 5
10 -25 20 -40 20 -56 1 -13 -16 -75 -22 -66 -6 3 5 -1 14 -8 20 -12 10 -15 6
-21 -17z"/>
<path d="M5254 1663 c-15 -11 -14 -30 12 -222 33 -247 34 -248 121 -156 63 67
185 298 176 333 -3 13 -1 22 6 22 6 0 11 4 11 9 0 21 -299 34 -326 14z"/>
<path d="M5152 1628 c-14 -14 -16 -45 -3 -52 5 -4 7 3 4 13 -4 14 1 20 18 23
19 3 20 5 7 15 -11 10 -17 10 -26 1z"/>
<path d="M4797 1453 c-4 -3 -7 -11 -7 -17 0 -6 5 -5 12 2 6 6 9 14 7 17 -3 3
-9 2 -12 -2z"/>
<path d="M4850 1385 c0 -8 5 -15 10 -15 6 0 10 7 10 15 0 8 -4 15 -10 15 -5 0
-10 -7 -10 -15z"/>
<path d="M4815 1361 c-3 -5 -1 -12 5 -16 5 -3 10 1 10 9 0 18 -6 21 -15 7z"/>
<path d="M8318 4213 c7 -3 16 -2 19 1 4 3 -2 6 -13 5 -11 0 -14 -3 -6 -6z"/>
<path d="M8368 4203 c7 -3 16 -2 19 1 4 3 -2 6 -13 5 -11 0 -14 -3 -6 -6z"/>
<path d="M6933 4138 c-19 -25 -26 -41 -15 -34 5 3 12 0 15 -6 2 -7 6 2 9 20 5
36 4 37 -9 20z"/>
<path d="M6923 4057 c-1 -12 -5 -33 -8 -47 -4 -14 -4 -22 0 -18 11 10 24 78
16 82 -4 3 -8 -5 -8 -17z"/>
<path d="M6874 4048 c-4 -7 -14 -24 -22 -38 -14 -24 -13 -24 3 -5 20 24 37 55
31 55 -3 0 -8 -6 -12 -12z"/>
<path d="M6912 3960 c0 -14 2 -19 5 -12 2 6 2 18 0 25 -3 6 -5 1 -5 -13z"/>
<path d="M6895 3865 c-4 -37 -5 -69 -2 -71 2 -3 8 25 12 61 4 37 5 69 2 71 -2
3 -8 -25 -12 -61z"/>
<path d="M6780 3900 c-6 -11 -8 -20 -6 -20 3 0 10 9 16 20 6 11 8 20 6 20 -3
0 -10 -9 -16 -20z"/>
<path d="M6705 3784 c-9 -15 -12 -23 -6 -20 11 7 35 46 28 46 -3 0 -12 -12
-22 -26z"/>
<path d="M6883 3745 c0 -22 2 -30 4 -17 2 12 2 30 0 40 -3 9 -5 -1 -4 -23z"/>
<path d="M6670 3730 c-6 -11 -8 -20 -6 -20 3 0 10 9 16 20 6 11 8 20 6 20 -3
0 -10 -9 -16 -20z"/>
</g>
</svg>
